<?xml version="1.0" ?>


<!DOCTYPE svg  PUBLIC '-//W3C//DTD SVG 1.1//EN'  'http://www.w3.org/Graphics/SVG/1.1/DTD/svg11.dtd'>

<svg enable-background="new 0 0 59.834 59.834" height="59.834px" id="Layer_1" version="1.1" viewBox="0 0 59.834 59.834" width="59.834px" xml:space="preserve" xmlns="http://www.w3.org/2000/svg" xmlns:xlink="http://www.w3.org/1999/xlink">
<path d="M29.917,0C13.421,0,0,13.421,0,29.917s13.421,29.917,29.917,29.917s29.917-13.421,29.917-29.917S46.413,0,29.917,0z   M29.917,56.834C15.075,56.834,3,44.759,3,29.917C3,15.075,15.075,3,29.917,3c14.842,0,26.917,12.075,26.917,26.917  C56.834,44.759,44.759,56.834,29.917,56.834z"/><path d="M24.531,29.636c-0.018-0.095-0.03-0.187-0.067-0.277c-0.037-0.092-0.098-0.171-0.154-0.255  c-0.043-0.065-0.065-0.139-0.12-0.199c-0.016-0.017-0.038-0.023-0.054-0.04c-0.016-0.016-0.022-0.039-0.04-0.054l-7.5-6.866  c-0.611-0.56-1.56-0.517-2.119,0.094c-0.56,0.611-0.518,1.56,0.094,2.119l6.292,5.759l-6.292,5.759  c-0.611,0.56-0.653,1.508-0.094,2.119c0.296,0.323,0.701,0.487,1.107,0.487c0.362,0,0.725-0.13,1.012-0.394l7.5-6.865  c0.01-0.009,0.013-0.021,0.022-0.031c0.023-0.021,0.049-0.038,0.071-0.063c0.055-0.06,0.077-0.134,0.12-0.199  c0.056-0.084,0.117-0.163,0.154-0.255c0.037-0.09,0.049-0.183,0.067-0.277c0.019-0.095,0.042-0.185,0.042-0.281  S24.549,29.73,24.531,29.636z"/><path d="M44.25,35.282H26.917c-0.829,0-1.5,0.672-1.5,1.5s0.671,1.5,1.5,1.5H44.25c0.828,0,1.5-0.672,1.5-1.5  S45.078,35.282,44.25,35.282z"/>
</svg>